<svg width="24" height="24" viewBox="0 0 24 24" fill="none" xmlns="http://www.w3.org/2000/svg">
<path d="M21.3036 5.50292C20.766 5.02645 20.1278 4.64848 19.4253 4.39061C18.7228 4.13273 17.9699 4 17.2095 4C16.4491 4 15.6961 4.13273 14.9936 4.39061C14.2912 4.64848 13.6529 5.02645 13.1153 5.50292L11.9997 6.4913L10.8841 5.50292C9.79827 4.54094 8.32556 4.0005 6.78997 4.0005C5.25437 4.0005 3.78167 4.54094 2.69584 5.50292C1.61001 6.46491 1 7.76964 1 9.1301C1 10.4906 1.61001 11.7953 2.69584 12.7573L3.81147 13.7457L11.9997 21L20.188 13.7457L21.3036 12.7573C21.8414 12.281 22.268 11.7156 22.5591 11.0932C22.8502 10.4708 23 9.80377 23 9.1301C23 8.45642 22.8502 7.78935 22.5591 7.16699C22.268 6.54463 21.8414 5.97917 21.3036 5.50292Z" stroke="white" stroke-width="1.8" stroke-linecap="round" stroke-linejoin="round"/>
</svg>
